# Blender 5.0.1
# www.blender.org
mtllib TurretBase.mtl
o Cube
v 1.000000 1.000000 -1.000000
v 2.279832 -1.000000 -2.279832
v 1.000000 1.000000 1.000000
v 2.279832 -1.000000 2.279832
v -1.000000 1.000000 -1.000000
v -2.279832 -1.000000 -2.279832
v -1.000000 1.000000 1.000000
v -2.279832 -1.000000 2.279832
v 1.000000 2.405316 -1.000000
v 1.000000 2.405316 1.000000
v -1.000000 2.405316 -1.000000
v -1.000000 2.405316 1.000000
vn -0.0000 -0.0000 1.0000
vn -0.0000 0.5390 0.8423
vn -0.8423 0.5390 -0.0000
vn -0.0000 -1.0000 -0.0000
vn 0.8423 0.5390 -0.0000
vn -0.0000 0.5390 -0.8423
vn -0.0000 1.0000 -0.0000
vn -1.0000 -0.0000 -0.0000
vn 1.0000 -0.0000 -0.0000
vn -0.0000 -0.0000 -1.0000
vt 0.625000 1.000000
vt 0.625000 0.750000
vt 0.375000 0.750000
vt 0.375000 1.000000
vt 0.375000 0.000000
vt 0.625000 0.000000
vt 0.625000 0.250000
vt 0.375000 0.250000
vt 0.125000 0.500000
vt 0.375000 0.500000
vt 0.125000 0.750000
vt 0.625000 0.500000
vt 0.875000 0.500000
vt 0.875000 0.750000
s 0
usemtl Material
f 7/1/1 3/2/1 10/2/1 12/1/1
f 4/3/2 3/2/2 7/1/2 8/4/2
f 8/5/3 7/6/3 5/7/3 6/8/3
f 6/9/4 2/10/4 4/3/4 8/11/4
f 2/10/5 1/12/5 3/2/5 4/3/5
f 6/8/6 5/7/6 1/12/6 2/10/6
f 9/12/7 11/13/7 12/14/7 10/2/7
f 5/7/8 7/6/8 12/6/8 11/7/8
f 3/2/9 1/12/9 9/12/9 10/2/9
f 1/12/10 5/7/10 11/7/10 9/12/10
